<svg xmlns="http://www.w3.org/2000/svg" width="32" height="32" viewBox="0 0 32 32"><g><g><path d="M31.065 25.89l-14.471 5.987a1.496 1.496 0 0 1-1.188 0L.936 25.89A1.5 1.5 0 0 1 0 24.5v-23A1.5 1.5 0 0 1 2.073.115l.003.001.013.005L16 5.876 29.912.12l.013-.005.003-.001A1.5 1.5 0 0 1 32 1.5v23a1.5 1.5 0 0 1-.935 1.39zM14.5 8.502L3 3.743v19.754l11.5 4.759zM29 3.743l-11.5 4.76v19.753l11.5-4.76zm-9.12 6.891l5.5-2.5a1.5 1.5 0 0 1 1.241 2.731l-5.5 2.5a1.5 1.5 0 0 1-1.241-2.731zm0 5.5l5.5-2.5a1.499 1.499 0 0 1 2.12 1.365 1.5 1.5 0 0 1-.88 1.366l-5.5 2.5a1.5 1.5 0 0 1-1.241-2.73zm0 5.5l5.5-2.5a1.5 1.5 0 0 1 1.241 2.731l-5.5 2.5a1.5 1.5 0 0 1-1.241-2.731zM6 8c.221 0 .431.048.62.134l5.5 2.5a1.5 1.5 0 0 1-1.24 2.731l-5.5-2.5A1.5 1.5 0 0 1 6 8zm0 5.5c.221 0 .431.048.62.134l5.5 2.5a1.5 1.5 0 1 1-1.24 2.73v.001l-5.5-2.5A1.5 1.5 0 0 1 6 13.5zM6 19c.221 0 .431.048.62.134l5.5 2.5a1.5 1.5 0 0 1-1.24 2.731l-5.5-2.5A1.5 1.5 0 0 1 6 19z"/></g></g></svg>