<svg xmlns="http://www.w3.org/2000/svg" width="32" height="31" viewBox="0 0 32 31"><g><g><path d="M32 16.5a1.5 1.5 0 0 1-1.5 1.5 1.49 1.49 0 0 1-1.02-.406l-.003.004L16.038 4.159 16 4.122 2.554 17.568a1.5 1.5 0 1 1-2.092-2.15L14.918.96c.273-.283.656-.46 1.08-.46H16c.027 0 .053 0 .08.002h.012a1.97 1.97 0 0 1 .072.007c.367.04.694.212.933.468L23 6.877V5.5a1.5 1.5 0 1 1 3 0v4.378l5.598 5.598-.004.004c.25.268.406.625.406 1.02zM29 19v10.5a1.5 1.5 0 0 1-1.5 1.5h-3V19h-6v12h-14A1.5 1.5 0 0 1 3 29.5V19L16 6zm-15.5 0h-6v6h6z"/></g></g></svg>