<svg xmlns="http://www.w3.org/2000/svg" width="20" height="26" viewBox="0 0 20 26"><g><g><path d="M8.05 16.854c-.208.833-.419 1.706-.637 2.56-.215.842-.405 1.696-.718 2.47-.519 1.281-1.178 2.52-2.043 3.521-.575.667-.453.4-.626.365-.132-.028-.143-.157-.17-.345-.14-1.018-.044-2.195.008-3.34.06-1.303.334-2.387.589-3.47.484-2.064.946-4.087 1.435-6.164.032-.138.12-.366.09-.445-.222-.577-.366-1.095-.429-1.7a5.41 5.41 0 0 1 .14-1.944c.276-1.058.912-1.995 1.893-2.338.624-.216 1.315-.118 1.735.132.432.259.729.667.867 1.246.148.615.039 1.35-.08 1.891-.267 1.219-.618 2.134-.937 3.31-.158.583-.337 1.182-.19 1.812.137.578.438.976.848 1.275.426.31.93.48 1.625.455 1.228-.043 2.081-.828 2.651-1.568.913-1.185 1.465-2.784 1.675-4.686.068-.614.117-1.319.07-2.014-.088-1.284-.49-2.317-1.127-3.117-.606-.763-1.466-1.37-2.512-1.71-1.037-.34-2.472-.452-3.747-.234-2.318.397-3.952 1.714-4.915 3.533a7.078 7.078 0 0 0-.837 3.41c0 1.05.26 1.865.678 2.5.133.201.328.367.458.597.185.326-.028.811-.12 1.164-.11.425-.12 1.012-.617 1.022-.206.004-.464-.146-.638-.243-1.305-.721-2.097-2.033-2.422-3.734a8.934 8.934 0 0 1 0-3.238c.19-.967.544-1.858.937-2.581a9.238 9.238 0 0 1 3.459-3.563C5.559 1.023 6.818.56 8.35.337A16.42 16.42 0 0 1 9.955.205a9.638 9.638 0 0 1 4.326.81 8.849 8.849 0 0 1 2.98 2.146c.838.915 1.448 1.98 1.834 3.309.202.692.398 1.432.398 2.287 0 .858-.181 1.613-.308 2.368-.474 2.828-1.819 5.141-3.838 6.458a6.635 6.635 0 0 1-1.754.809c-.667.194-1.428.34-2.243.283a4.599 4.599 0 0 1-1.983-.577c-.54-.305-.994-.679-1.316-1.244z"/></g></g></svg>