<svg aria-hidden="true" style="position: absolute; width: 0; height: 0; overflow: hidden;" version="1.1" xmlns="http://www.w3.org/2000/svg" xmlns:xlink="http://www.w3.org/1999/xlink">
<defs>
<symbol id="icon-ALARM" viewBox="0 0 32 32">
<path d="M30.74 10.003c-1.623-3.716-4.527-6.62-8.142-8.204l-0.101-0.039c1-0.787 2.258-1.26 3.629-1.26 3.244 0 5.874 2.63 5.874 5.874v0c0 0.001 0 0.002 0 0.003 0 1.375-0.475 2.639-1.269 3.637l0.009-0.012zM30.5 16.5c0 3.852-1.512 7.343-3.963 9.94l2.029 2.028c0.258 0.267 0.417 0.63 0.417 1.031 0 0.819-0.664 1.483-1.483 1.483-0.401 0-0.765-0.159-1.032-0.418l-2.18-2.178c-2.306 1.635-5.178 2.613-8.278 2.613-0.004 0-0.008 0-0.012 0h0.001c-0.004 0-0.008 0-0.012 0-3.094 0-5.961-0.974-8.309-2.633l0.045 0.030-2.163 2.163c-0.274 0.289-0.661 0.47-1.090 0.47-0.828 0-1.5-0.672-1.5-1.5 0-0.429 0.18-0.816 0.468-1.089l0.001-0.001 2.011-2.012c-2.443-2.596-3.951-6.083-3.951-9.928 0-8.008 6.492-14.5 14.5-14.5s14.5 6.492 14.5 14.5zM16 5c-6.351 0-11.5 5.148-11.5 11.5 0 6.351 5.149 11.5 11.5 11.5s11.5-5.15 11.5-11.5c0-6.352-5.15-11.5-11.5-11.5zM22 18h-6c-0.828 0-1.5-0.672-1.5-1.5v0-8c0-0.828 0.672-1.5 1.5-1.5s1.5 0.672 1.5 1.5v0 6.5h4.5c0.828 0 1.5 0.672 1.5 1.5s-0.672 1.5-1.5 1.5v0zM1.287 10.205c-0.802-1.007-1.287-2.298-1.287-3.702 0-0.001 0-0.002 0-0.003v0c0-3.314 2.686-6 6-6v0c1.4 0 2.685 0.483 3.706 1.287-3.795 1.658-6.761 4.624-8.379 8.315l-0.040 0.103z"></path>
</symbol>
<symbol id="icon-BOOK" viewBox="0 0 32 32">
<path d="M31.065 25.89l-14.471 5.987c-0.175 0.078-0.379 0.123-0.594 0.123s-0.419-0.045-0.604-0.127l0.010 0.004-14.47-5.987c-0.554-0.229-0.936-0.765-0.936-1.39 0-0 0-0 0-0v0-23c0.001-0.828 0.672-1.499 1.5-1.499 0.207 0 0.404 0.042 0.583 0.117l-0.010-0.004 0.003 0.001 0.013 0.005 13.911 5.755 13.928-5.762c0.169-0.072 0.366-0.113 0.572-0.113 0.828 0 1.5 0.671 1.5 1.499v23c0 0 0 0 0 0 0 0.625-0.382 1.16-0.925 1.386l-0.010 0.004zM14.5 8.502l-11.5-4.759v19.754l11.5 4.759zM29 3.743l-11.5 4.76v19.753l11.5-4.76zM19.88 10.634l5.5-2.5c0.177-0.080 0.385-0.126 0.603-0.126 0.828 0 1.5 0.672 1.5 1.5 0 0.597-0.348 1.112-0.852 1.353l-0.009 0.004-5.5 2.5c-0.177 0.080-0.385 0.126-0.603 0.126-0.828 0-1.5-0.672-1.5-1.5 0-0.597 0.348-1.112 0.852-1.353l0.009-0.004zM19.88 16.134l5.5-2.5c0.182-0.085 0.396-0.135 0.621-0.135 0.828 0 1.499 0.671 1.499 1.499 0 0 0 0 0 0.001v-0c0 0 0 0 0 0 0 0.604-0.357 1.124-0.871 1.362l-0.009 0.004-5.5 2.5c-0.172 0.074-0.372 0.118-0.582 0.118-0.828 0-1.5-0.672-1.5-1.5 0-0.589 0.339-1.098 0.833-1.344l0.009-0.004zM19.88 21.634l5.5-2.5c0.177-0.080 0.385-0.126 0.603-0.126 0.828 0 1.5 0.672 1.5 1.5 0 0.597-0.348 1.112-0.852 1.353l-0.009 0.004-5.5 2.5c-0.177 0.080-0.385 0.126-0.603 0.126-0.828 0-1.5-0.672-1.5-1.5 0-0.597 0.348-1.112 0.852-1.353l0.009-0.004zM6 8c0.221 0 0.431 0.048 0.62 0.134l5.5 2.5c0.508 0.248 0.851 0.76 0.851 1.352 0 0.828-0.672 1.5-1.5 1.5-0.214 0-0.417-0.045-0.601-0.125l0.010 0.004-5.5-2.5c-0.522-0.242-0.878-0.762-0.878-1.365 0-0.828 0.67-1.499 1.498-1.5h0zM6 13.5c0.221 0 0.431 0.048 0.62 0.134l5.5 2.5c0.547 0.232 0.924 0.764 0.924 1.385 0 0.828-0.672 1.5-1.5 1.5-0.242 0-0.471-0.057-0.673-0.159l0.009 0.004v0.001l-5.5-2.5c-0.522-0.242-0.878-0.762-0.878-1.365 0-0.828 0.67-1.499 1.498-1.5h0zM6 19c0.221 0 0.431 0.048 0.62 0.134l5.5 2.5c0.508 0.248 0.851 0.76 0.851 1.352 0 0.828-0.672 1.5-1.5 1.5-0.214 0-0.417-0.045-0.601-0.125l0.010 0.004-5.5-2.5c-0.522-0.242-0.878-0.762-0.878-1.365 0-0.828 0.67-1.499 1.498-1.5h0z"></path>
</symbol>
<symbol id="icon-CART" viewBox="0 0 32 32">
<path d="M31.513 9.179h0.002l-4.4 9.778c-0.221 0.485-0.687 0.824-1.235 0.862l-0.005 0-12.672 0.844 0.732 2.091h13.797c1.62 0 2.933 1.313 2.933 2.933s-1.313 2.933-2.933 2.933c-1.62 0-2.933-1.313-2.933-2.933v0h-13.689c0 0.001 0 0.001 0 0.002 0 1.62-1.313 2.933-2.933 2.933s-2.933-1.313-2.933-2.933c0-1.62 1.313-2.933 2.933-2.933h2.649l-5.643-16.133h-3.36c-0.81 0-1.467-0.657-1.467-1.467s0.657-1.467 1.467-1.467v0h4.398c0.64 0 1.179 0.412 1.38 0.983h0.005l0.853 2.439h21.717c0.809 0.002 1.464 0.658 1.464 1.467 0 0.218-0.047 0.424-0.133 0.61l0.004-0.009zM9.486 10.044l2.713 7.746 12.603-0.841 3.108-6.905z"></path>
</symbol>
<symbol id="icon-COMPUTER" viewBox="0 0 32 32">
<path d="M30 25h-9.5v2.5l2 2v0.5h-13v-0.5l2-2v-2.5h-9.5c-0.828 0-1.5-0.672-1.5-1.5v0-20c0-0.828 0.672-1.5 1.5-1.5v0h28c0.828 0 1.5 0.672 1.5 1.5v0 20c0 0.828-0.672 1.5-1.5 1.5v0zM29.5 4h-27v17h27zM13 11c0.414 0 0.79 0.168 1.060 0.439l0.94 0.94 2.94-2.94c0.274-0.289 0.661-0.469 1.090-0.469 0.828 0 1.5 0.672 1.5 1.5 0 0.429-0.18 0.816-0.469 1.089l-0.001 0.001-4 4c-0.271 0.273-0.646 0.441-1.061 0.441s-0.79-0.169-1.061-0.441l-2-2c-0.271-0.271-0.439-0.646-0.439-1.060 0-0.828 0.672-1.5 1.5-1.5 0 0 0 0 0.001 0h-0z"></path>
</symbol>
<symbol id="icon-facebook" viewBox="0 0 32 32">
<path d="M23.495 0.245v5.071s-3.739-0.372-4.676 1.061c-0.512 0.783-0.208 3.077-0.254 4.724h4.96c-0.42 1.925-0.72 3.23-1.029 4.896h-3.958v15.759h-6.871v-15.697h-2.922v-4.956h2.891c0.148-3.626 0.203-7.217 2.005-9.046 2.023-2.057 3.954-1.81 9.852-1.81z"></path>
</symbol>
<symbol id="icon-GLASS" viewBox="0 0 32 32">
<path d="M31.644 28.711c-0 1.62-1.314 2.933-2.933 2.933-0.81 0-1.544-0.329-2.075-0.86l-8.597-8.596c-1.746 1.031-3.776 1.634-5.95 1.634-6.48 0-11.733-5.253-11.733-11.733s5.253-11.733 11.733-11.733c6.48 0 11.733 5.253 11.733 11.733v0c-0 2.196-0.608 4.249-1.663 6.003l0.029-0.053 8.597 8.597c0.53 0.53 0.859 1.262 0.859 2.075zM12.089 3.289c-4.86 0-8.8 3.94-8.8 8.8s3.94 8.8 8.8 8.8v0c4.86 0 8.8-3.94 8.8-8.8s-3.94-8.8-8.8-8.8v0z"></path>
</symbol>
<symbol id="icon-GRAPH" viewBox="0 0 32 32">
<path d="M30.5 32h-29c-0.828 0-1.5-0.672-1.5-1.5v0-29c0-0.828 0.672-1.5 1.5-1.5v0h29c0.828 0 1.5 0.672 1.5 1.5v0 29c0 0.828-0.672 1.5-1.5 1.5v0zM29 3h-26v26h26zM5.215 16.238l4-2.5c0.223-0.14 0.494-0.223 0.785-0.223 0.314 0 0.605 0.097 0.845 0.263l-0.005-0.003 0.006-0.008 6.63 4.42 7.639-5.391c0.24-0.17 0.538-0.271 0.86-0.271 0.828 0 1.5 0.672 1.5 1.5 0 0.488-0.233 0.921-0.593 1.195l-0.004 0.003-8.5 6c-0.243 0.179-0.548 0.286-0.878 0.286-0.323 0-0.622-0.103-0.866-0.277l0.005 0.003-6.657-4.438-3.135 1.96c-0.221 0.135-0.488 0.215-0.774 0.215-0.828 0-1.5-0.672-1.5-1.5 0-0.508 0.252-0.957 0.639-1.228l0.005-0.003z"></path>
</symbol>
<symbol id="icon-HOME" viewBox="0 0 32 32">
<path d="M32 17c0 0.828-0.672 1.5-1.5 1.5v0c-0.395-0.001-0.754-0.155-1.021-0.407l0.001 0.001-0.003 0.004-13.477-13.476-13.446 13.446c-0.271 0.27-0.645 0.436-1.058 0.436-0.828 0-1.5-0.672-1.5-1.5 0-0.427 0.178-0.812 0.465-1.086l0.001-0.001 14.456-14.458c0.273-0.283 0.656-0.46 1.080-0.46h0.002c0.027 0 0.053 0 0.080 0.002h0.012c0.032 0.002 0.057 0.005 0.081 0.008l-0.009-0.001c0.367 0.040 0.694 0.212 0.933 0.468l5.903 5.9v-1.377c0-0.828 0.672-1.5 1.5-1.5s1.5 0.672 1.5 1.5v0 4.378l5.598 5.598-0.004 0.004c0.25 0.268 0.406 0.625 0.406 1.020zM29 19.5v10.5c0 0.828-0.672 1.5-1.5 1.5v0h-3v-12h-6v12h-14c-0.828 0-1.5-0.672-1.5-1.5v0-10.5l13-13zM13.5 19.5h-6v6h6z"></path>
</symbol>
<symbol id="icon-IMAGE" viewBox="0 0 32 32">
<path d="M30.5 32h-29c-0.828 0-1.5-0.672-1.5-1.5v0-29c0-0.828 0.672-1.5 1.5-1.5v0h29c0.828 0 1.5 0.672 1.5 1.5v0 29c0 0.828-0.672 1.5-1.5 1.5v0zM29 3h-26v26h26zM12 4.5c0.828 0 1.5 0.672 1.5 1.5s-0.672 1.5-1.5 1.5v0h-4.5v4.5c0 0.828-0.672 1.5-1.5 1.5s-1.5-0.672-1.5-1.5v0-7.5zM4.5 20c0-0.828 0.672-1.5 1.5-1.5s1.5 0.672 1.5 1.5v0 4.5h4.5c0.828 0 1.5 0.672 1.5 1.5s-0.672 1.5-1.5 1.5v0h-7.5zM20 4.5h7.5v7.5c0 0.828-0.672 1.5-1.5 1.5s-1.5-0.672-1.5-1.5v0-4.5h-4.5c-0.828 0-1.5-0.672-1.5-1.5s0.672-1.5 1.5-1.5v0zM20 24.5h4.5v-4.5c0-0.828 0.672-1.5 1.5-1.5s1.5 0.672 1.5 1.5v0 7.5h-7.5c-0.828 0-1.5-0.672-1.5-1.5s0.672-1.5 1.5-1.5v0z"></path>
</symbol>
<symbol id="icon-instagram" viewBox="0 0 32 32">
<path d="M27.938 31.754h-23.631c-2.175 0-3.938-1.763-3.938-3.938v0-23.631c0-2.175 1.763-3.938 3.938-3.938v0h23.631c2.175 0 3.938 1.763 3.938 3.938v0 23.631c0 2.175-1.763 3.938-3.938 3.938v0zM16.123 9.895c-2.441 0.001-4.546 1.436-5.52 3.507l-0.016 0.037h-0.006l-0.027 0.066c-0.042 0.090-0.095 0.22-0.144 0.353l-0.014 0.042c-0.025 0.065-0.049 0.128-0.070 0.192-0.033 0.094-0.073 0.234-0.108 0.376l-0.009 0.042c-0.017 0.066-0.037 0.13-0.052 0.197-0.025 0.112-0.051 0.266-0.072 0.422l-0.003 0.031c-0.009 0.062-0.021 0.122-0.028 0.185-0.023 0.199-0.036 0.431-0.036 0.665 0 3.372 2.733 6.105 6.105 6.105s6.105-2.733 6.105-6.105c0-0.234-0.013-0.465-0.039-0.693l0.003 0.028c-0.006-0.063-0.018-0.123-0.027-0.185-0.024-0.187-0.050-0.341-0.082-0.493l0.007 0.040c-0.015-0.066-0.034-0.13-0.052-0.197-0.044-0.184-0.084-0.324-0.129-0.462l0.012 0.044c-0.021-0.064-0.047-0.127-0.070-0.192-0.062-0.174-0.116-0.304-0.173-0.432l0.015 0.038-0.027-0.069h-0.006c-0.99-2.108-3.096-3.542-5.536-3.543h-0zM28.332 5.366c0-0.87-0.705-1.575-1.575-1.575v0h-3.151c-0.87 0-1.575 0.705-1.575 1.575v0 3.151c0 0.87 0.705 1.575 1.575 1.575h3.151c0.87 0 1.575-0.705 1.575-1.575v0zM28.332 13.44h-2.905c0.22 0.768 0.346 1.649 0.346 2.56 0 5.329-4.32 9.649-9.649 9.649-0 0-0.001 0-0.001 0h0c-0 0-0.001 0-0.001 0-5.329 0-9.649-4.32-9.649-9.649 0-0.911 0.126-1.793 0.362-2.628l-0.016 0.068h-2.905v13.194c0 0.87 0.705 1.575 1.575 1.575h21.268c0.87 0 1.575-0.705 1.575-1.575v0z"></path>
</symbol>
<symbol id="icon-pinterest" viewBox="0 0 32 32">
<path d="M13.6 20.743c-0.256 1.025-0.516 2.1-0.784 3.151-0.265 1.036-0.498 2.087-0.884 3.040-0.639 1.577-1.45 3.102-2.514 4.334-0.708 0.821-0.558 0.492-0.77 0.449-0.162-0.034-0.176-0.193-0.209-0.425-0.172-1.253-0.054-2.702 0.010-4.111 0.074-1.604 0.411-2.938 0.725-4.271 0.596-2.54 1.164-5.030 1.766-7.586 0.039-0.17 0.148-0.45 0.111-0.548-0.273-0.71-0.45-1.348-0.528-2.092-0.025-0.218-0.040-0.47-0.040-0.726 0-0.592 0.077-1.167 0.222-1.713l-0.011 0.046c0.34-1.302 1.122-2.455 2.33-2.878 0.768-0.266 1.618-0.145 2.135 0.162 0.532 0.319 0.897 0.821 1.067 1.534 0.182 0.757 0.048 1.662-0.098 2.327-0.329 1.5-0.761 2.626-1.153 4.074-0.194 0.718-0.415 1.455-0.234 2.23 0.169 0.711 0.539 1.201 1.044 1.569 0.524 0.382 1.145 0.591 2 0.56 1.511-0.053 2.561-1.019 3.263-1.93 1.124-1.458 1.803-3.426 2.062-5.767 0.084-0.756 0.144-1.623 0.086-2.479-0.108-1.58-0.603-2.852-1.387-3.836-0.746-0.939-1.804-1.686-3.092-2.105-1.276-0.418-3.042-0.556-4.612-0.288-2.853 0.489-4.864 2.11-6.049 4.348-0.649 1.189-1.031 2.605-1.031 4.11 0 0.030 0 0.061 0 0.091l-0-0.005c0 1.292 0.32 2.295 0.834 3.077 0.164 0.247 0.404 0.452 0.564 0.735 0.228 0.401-0.034 0.998-0.148 1.433-0.135 0.523-0.148 1.246-0.759 1.258-0.254 0.005-0.571-0.18-0.785-0.299-1.606-0.887-2.581-2.502-2.981-4.596-0.116-0.599-0.182-1.288-0.182-1.993s0.066-1.393 0.193-2.061l-0.011 0.069c0.234-1.19 0.67-2.287 1.153-3.177 1.013-1.837 2.459-3.323 4.204-4.356l0.053-0.029c1.374-0.812 2.923-1.382 4.809-1.657 0.568-0.080 1.25-0.138 1.942-0.162l0.034-0.001c0.16-0.008 0.348-0.012 0.537-0.012 1.733 0 3.379 0.372 4.863 1.039l-0.075-0.030c1.44 0.644 2.66 1.536 3.66 2.633l0.008 0.009c1.031 1.126 1.782 2.437 2.257 4.073 0.249 0.852 0.49 1.762 0.49 2.815 0 1.056-0.223 1.985-0.379 2.914-0.583 3.481-2.239 6.327-4.724 7.948-0.621 0.411-1.337 0.75-2.101 0.981l-0.058 0.015c-0.821 0.239-1.758 0.418-2.761 0.348-0.904-0.053-1.737-0.31-2.469-0.725l0.028 0.015c-0.665-0.375-1.223-0.836-1.62-1.531z"></path>
</symbol>
<symbol id="icon-twitter" viewBox="0 0 32 32">
<path d="M21.554 3.201c2.503-0.044 3.836 0.868 5.108 2.027 1.082-0.092 2.486-0.695 3.313-1.116l0.804-0.439c-0.473 1.276-1.113 2.277-2.097 3.035-0.219 0.167-0.436 0.395-0.71 0.502v0.016c1.403-0.014 2.56-0.647 3.659-0.991v0.016c-0.577 0.917-1.359 1.849-2.192 2.516l-1.009 0.801c0.018 1.486-0.022 2.903-0.3 4.151-1.614 7.255-5.892 12.181-12.662 14.292-2.432 0.757-6.361 1.068-9.147 0.377-1.381-0.342-2.629-0.73-3.801-1.241-0.719-0.313-1.32-0.629-1.895-0.983l0.066 0.038-0.567-0.343c0.628 0.018 1.364 0.192 2.065 0.078 0.636-0.102 1.259-0.075 1.846-0.203 1.462-0.321 2.761-0.746 3.878-1.401 0.543-0.316 1.366-0.689 1.751-1.147-0.726 0.012-1.385-0.156-1.924-0.346-2.092-0.738-3.308-2.096-4.101-4.135 0.634 0.070 2.459 0.234 2.886-0.126-0.798-0.044-1.564-0.506-2.113-0.849-1.682-1.052-3.054-2.817-3.044-5.534l0.662 0.314c0.423 0.178 0.853 0.273 1.356 0.378 0.213 0.044 0.64 0.169 0.884 0.078h-0.032c-0.325-0.378-0.855-0.63-1.182-1.038-1.081-1.342-2.092-3.404-1.452-5.863 0.18-0.641 0.416-1.2 0.714-1.719l-0.019 0.037 0.032 0.015c0.126 0.263 0.406 0.457 0.583 0.677 0.551 0.683 1.231 1.297 1.924 1.839 2.361 1.846 4.486 2.981 7.902 3.82 0.865 0.214 1.866 0.377 2.901 0.378-0.29-0.846-0.197-2.215 0.031-3.034 0.576-2.060 1.825-3.545 3.659-4.338 0.407-0.176 0.887-0.328 1.384-0.433l0.051-0.009 0.788-0.094z"></path>
</symbol>
</defs>
</svg>
